<svg width="40" height="40" viewBox="0 0 40 40" fill="none" xmlns="http://www.w3.org/2000/svg">
<g id="hiking length 1">
<path id="Vector" d="M11.5775 37.6514L16.5744 12.3826C16.7369 11.5972 17.1025 11.0081 17.6712 10.6154C18.24 10.2227 18.8358 10.0264 19.4587 10.0264C20.0817 10.0264 20.6572 10.1618 21.1853 10.4326C21.7134 10.7035 22.14 11.1097 22.465 11.6514L24.09 14.2514C24.5775 15.0368 25.2072 15.7477 25.9791 16.3842C26.7509 17.0206 27.6379 17.4878 28.64 17.7857V14.9014H31.0775V37.6514H28.64V21.1576C27.34 20.8597 26.1348 20.3857 25.0244 19.7357C23.9139 19.0857 22.9525 18.2868 22.14 17.3389L21.165 22.2139L24.5775 25.4639V37.6514H21.3275V27.9014L17.915 24.6514L14.99 37.6514H11.5775ZM12.2681 21.6045L8.81499 20.9545C8.38166 20.8732 8.04312 20.6498 7.79937 20.2842C7.55562 19.9186 7.47437 19.5055 7.55562 19.0451L8.77437 12.667C8.93687 11.8003 9.39728 11.1165 10.1556 10.6154C10.9139 10.1144 11.7264 9.94512 12.5931 10.1076L14.4619 10.4732L12.2681 21.6045ZM22.14 9.21387C21.2462 9.21387 20.4811 8.89564 19.8447 8.25918C19.2082 7.62272 18.89 6.85762 18.89 5.96387C18.89 5.07012 19.2082 4.30501 19.8447 3.66855C20.4811 3.0321 21.2462 2.71387 22.14 2.71387C23.0337 2.71387 23.7988 3.0321 24.4353 3.66855C25.0718 4.30501 25.39 5.07012 25.39 5.96387C25.39 6.85762 25.0718 7.62272 24.4353 8.25918C23.7988 8.89564 23.0337 9.21387 22.14 9.21387Z" fill="black"/>
</g>
</svg>
