<svg width="40" height="40" viewBox="0 0 40 40" fill="none" xmlns="http://www.w3.org/2000/svg">
<g id="loc pin 1">
<path id="Vector" d="M19.9209 19.8772C20.8146 19.8772 21.5798 19.559 22.2162 18.9225C22.8527 18.2861 23.1709 17.5209 23.1709 16.6272C23.1709 15.7334 22.8527 14.9683 22.2162 14.3319C21.5798 13.6954 20.8146 13.3772 19.9209 13.3772C19.0271 13.3772 18.262 13.6954 17.6256 14.3319C16.9891 14.9683 16.6709 15.7334 16.6709 16.6272C16.6709 17.5209 16.9891 18.2861 17.6256 18.9225C18.262 19.559 19.0271 19.8772 19.9209 19.8772ZM19.9209 36.1272C15.5605 32.4168 12.3037 28.9704 10.1506 25.7881C7.99746 22.6058 6.9209 19.6605 6.9209 16.9522C6.9209 12.8897 8.22767 9.65324 10.8412 7.24282C13.4548 4.83241 16.4813 3.6272 19.9209 3.6272C23.3605 3.6272 26.387 4.83241 29.0006 7.24282C31.6141 9.65324 32.9209 12.8897 32.9209 16.9522C32.9209 19.6605 31.8443 22.6058 29.6912 25.7881C27.5381 28.9704 24.2813 32.4168 19.9209 36.1272Z" fill="#FE2B25"/>
</g>
</svg>
