<svg width="39" height="39" viewBox="0 0 39 39" fill="none" xmlns="http://www.w3.org/2000/svg">
<g id="toilet 1">
<path id="Vector" d="M8.9375 35.75V23.5625H6.5V14.625C6.5 13.7312 6.81823 12.9661 7.45469 12.3297C8.09115 11.6932 8.85625 11.375 9.75 11.375H14.625C15.5188 11.375 16.2839 11.6932 16.9203 12.3297C17.5568 12.9661 17.875 13.7312 17.875 14.625V23.5625H15.4375V35.75H8.9375ZM12.1875 9.75C11.2938 9.75 10.5286 9.43177 9.89219 8.79531C9.25573 8.15885 8.9375 7.39375 8.9375 6.5C8.9375 5.60625 9.25573 4.84115 9.89219 4.20469C10.5286 3.56823 11.2938 3.25 12.1875 3.25C13.0813 3.25 13.8464 3.56823 14.4828 4.20469C15.1193 4.84115 15.4375 5.60625 15.4375 6.5C15.4375 7.39375 15.1193 8.15885 14.4828 8.79531C13.8464 9.43177 13.0813 9.75 12.1875 9.75ZM24.375 35.75V26H19.5L23.6438 13.5687C23.8604 12.8646 24.2599 12.3229 24.8422 11.9437C25.4245 11.5646 26.0813 11.375 26.8125 11.375C27.5438 11.375 28.2005 11.5646 28.7828 11.9437C29.3651 12.3229 29.7646 12.8646 29.9813 13.5687L34.125 26H29.25V35.75H24.375ZM26.8125 9.75C25.9188 9.75 25.1536 9.43177 24.5172 8.79531C23.8807 8.15885 23.5625 7.39375 23.5625 6.5C23.5625 5.60625 23.8807 4.84115 24.5172 4.20469C25.1536 3.56823 25.9188 3.25 26.8125 3.25C27.7063 3.25 28.4714 3.56823 29.1078 4.20469C29.7443 4.84115 30.0625 5.60625 30.0625 6.5C30.0625 7.39375 29.7443 8.15885 29.1078 8.79531C28.4714 9.43177 27.7063 9.75 26.8125 9.75Z" fill="black"/>
</g>
</svg>
